<svg width="111" height="31" viewBox="0 0 111 31" fill="none" xmlns="http://www.w3.org/2000/svg">
<path d="M77.2055 17.8994L76.7215 15.5368L75.5402 16.2341C75.048 15.988 74.4901 15.8485 73.8994 15.8485C73.3169 15.8485 72.7591 15.9797 72.2587 16.2341V16.2587L71.0691 17.358L70.5933 17.8994C70.339 18.3998 70.2078 18.9577 70.2078 19.5402V22.5814C70.2078 24.6159 71.861 26.2692 73.8955 26.2692C75.9875 26.2692 77.5872 24.5628 77.5872 22.5775L77.5911 19.5402C77.5911 18.9495 77.4517 18.3916 77.2055 17.8994ZM75.5363 22.5775C75.5363 23.4963 74.7898 24.2183 73.8955 24.2183C72.9931 24.2183 72.2548 23.4799 72.2548 22.5775L72.2586 19.5648L73.8994 19.5566L75.5401 19.5401L75.5363 22.5775Z" fill="#4A696F"/>
<path d="M77.591 19.5401L77.5871 22.5775C77.5871 24.5628 75.9874 26.2692 73.8954 26.2692V24.2183C74.7897 24.2183 75.5362 23.4963 75.5362 22.5775L75.5401 19.5402L73.8993 19.5565V15.8485C74.49 15.8485 75.0478 15.9879 75.5401 16.234L76.7214 15.5367L77.2054 17.8994C77.4515 18.3916 77.591 18.9495 77.591 19.5401Z" fill="#384949"/>
<path d="M80.4624 18.3096H79.642C79.4153 18.3096 79.2318 18.1262 79.2318 17.8994C79.2318 17.6727 79.4153 17.4892 79.642 17.4892H80.4624C80.6891 17.4892 80.8726 17.6727 80.8726 17.8994C80.8725 18.1262 80.6891 18.3096 80.4624 18.3096Z" fill="#D2C5C2"/>
<path d="M68.1569 18.3096H67.3365C67.1097 18.3096 66.9263 18.1262 66.9263 17.8995C66.9263 17.6728 67.1098 17.4893 67.3365 17.4893H68.1568C68.3835 17.4893 68.567 17.6728 68.567 17.8995C68.567 18.1262 68.3835 18.3096 68.1569 18.3096Z" fill="#DFD7D5"/>
<path d="M78.5172 15.2332C78.4038 15.0369 78.4711 14.7862 78.6674 14.6728L79.378 14.2626C79.5735 14.1485 79.8247 14.217 79.9384 14.4128C80.0518 14.6091 79.9845 14.8599 79.7882 14.9732L79.0776 15.3834C78.8826 15.4961 78.6315 15.4305 78.5172 15.2332Z" fill="#D2C5C2"/>
<path d="M67.8604 21.386C67.747 21.1897 67.8143 20.939 68.0106 20.8256L68.7212 20.4154C68.9159 20.3016 69.1679 20.3694 69.2816 20.5656C69.395 20.7619 69.3277 21.0127 69.1315 21.126L68.4208 21.5362C68.2258 21.6488 67.9746 21.5833 67.8604 21.386Z" fill="#DFD7D5"/>
<path d="M79.378 21.5362L78.6674 21.126C78.4711 21.0126 78.4038 20.7619 78.5172 20.5656C78.6306 20.3693 78.8805 20.3016 79.0776 20.4154L79.7882 20.8256C79.9845 20.939 80.0518 21.1897 79.9384 21.386C79.8242 21.5832 79.573 21.6489 79.378 21.5362Z" fill="#D2C5C2"/>
<path d="M68.7212 15.3835L68.0106 14.9733C67.8143 14.8599 67.747 14.6092 67.8604 14.4129C67.9742 14.217 68.2241 14.1485 68.4208 14.2627L69.1314 14.6729C69.3277 14.7863 69.395 15.037 69.2816 15.2333C69.1674 15.4305 68.9162 15.4961 68.7212 15.3835Z" fill="#DFD7D5"/>
<path d="M73.9033 9.52969C71.8688 9.52969 70.2116 11.1786 70.2116 13.2214L70.2078 16.2587C70.2078 16.8494 70.3472 17.4072 70.5933 17.8995C70.9543 18.6214 71.5367 19.2038 72.2587 19.5648C72.7509 19.8109 73.3088 19.9504 73.8994 19.9504C74.4737 19.9504 75.0315 19.8191 75.5402 19.5648V19.5402C75.5402 18.6378 74.8018 17.8995 73.8994 17.8995C72.997 17.8995 72.2587 17.1611 72.2587 16.2587L72.2626 13.2214C72.2626 12.7783 72.4349 12.3764 72.7466 12.0646C72.7466 12.0483 72.8204 11.9826 72.845 11.9744C73.0665 11.7529 73.4767 11.5806 73.9033 11.5806C74.8057 11.5806 75.544 12.3189 75.544 13.2214L75.5402 16.2341C76.2621 16.595 76.8446 17.1775 77.2056 17.8994C77.4517 17.399 77.5911 16.833 77.5911 16.2587L77.595 13.2213C77.595 11.1868 75.9378 9.52969 73.9033 9.52969Z" fill="#FFD400"/>
<path d="M75.5401 19.5401V19.5647C75.0315 19.819 74.4736 19.9504 73.8994 19.9503V17.8994C74.8018 17.8994 75.5401 18.6377 75.5401 19.5401Z" fill="#FF9F00"/>
<path d="M77.5949 13.2214L77.5911 16.2587C77.5911 16.833 77.4516 17.3991 77.2055 17.8995C76.8445 17.1775 76.2621 16.5951 75.5401 16.2341L75.544 13.2214C75.544 12.319 74.8057 11.5807 73.9033 11.5807V9.52972C75.9378 9.52968 77.5949 11.1868 77.5949 13.2214Z" fill="#FF9F00"/>
<path d="M11.0859 23.1562C11.375 23.1562 11.668 23.0742 11.9648 22.9102C12.2695 22.7383 12.5625 22.5078 12.8438 22.2188C13.1328 21.9219 13.4062 21.5742 13.6641 21.1758C13.9219 20.7773 14.1562 20.3516 14.3672 19.8984C14.5859 19.4375 14.7695 18.9609 14.918 18.4688C15.0742 17.9688 15.1914 17.4688 15.2695 16.9688C15.2852 16.2422 15.3203 15.5234 15.375 14.8125C15.4375 14.0938 15.5039 13.4414 15.5742 12.8555C15.6602 12.1758 15.75 11.5234 15.8438 10.8984L17.707 10.3945C17.6133 11.082 17.5273 11.8594 17.4492 12.7266C17.3867 13.4688 17.3281 14.3477 17.2734 15.3633C17.2266 16.3789 17.2031 17.4961 17.2031 18.7148C17.2031 19.6992 17.2656 20.5234 17.3906 21.1875C17.5234 21.8438 17.6992 22.375 17.918 22.7812C18.1445 23.1797 18.4023 23.4648 18.6914 23.6367C18.9883 23.8008 19.3008 23.8828 19.6289 23.8828C20.0508 23.8828 20.4414 23.7539 20.8008 23.4961C21.168 23.2383 21.4961 22.8789 21.7852 22.418C22.082 21.957 22.3438 21.4141 22.5703 20.7891C22.7969 20.1562 22.9883 19.4688 23.1445 18.7266C23.3008 17.9844 23.418 17.2031 23.4961 16.3828C23.5742 15.5625 23.6133 14.7344 23.6133 13.8984C23.6133 12.8047 23.5664 11.8398 23.4727 11.0039C23.3867 10.1602 23.2656 9.42969 23.1094 8.8125C22.9609 8.19531 22.7852 7.67969 22.582 7.26562C22.3789 6.85156 22.1641 6.51953 21.9375 6.26953C21.7188 6.01172 21.4922 5.83203 21.2578 5.73047C21.0234 5.62109 20.8008 5.56641 20.5898 5.56641C20.3633 5.56641 20.1562 5.60938 19.9688 5.69531C19.7812 5.77344 19.6094 5.875 19.4531 6C19.3047 6.125 19.168 6.25781 19.043 6.39844C18.9258 6.53125 18.8281 6.65625 18.75 6.77344L18.2109 6.45703C18.3047 6.30859 18.4453 6.12109 18.6328 5.89453C18.8281 5.66016 19.0586 5.4375 19.3242 5.22656C19.5977 5.00781 19.9023 4.82422 20.2383 4.67578C20.582 4.51953 20.9492 4.44141 21.3398 4.44141C21.9102 4.44141 22.4141 4.63281 22.8516 5.01562C23.2969 5.39844 23.668 5.94141 23.9648 6.64453C24.2695 7.34766 24.5 8.19141 24.6562 9.17578C24.8125 10.1602 24.8906 11.2539 24.8906 12.457C24.8906 13.457 24.8398 14.4531 24.7383 15.4453C24.6445 16.4297 24.5 17.3711 24.3047 18.2695C24.1094 19.168 23.8633 20.0039 23.5664 20.7773C23.2695 21.5508 22.9219 22.2227 22.5234 22.793C22.125 23.3555 21.6758 23.7969 21.1758 24.1172C20.6758 24.4375 20.1211 24.5977 19.5117 24.5977C18.9727 24.5977 18.4727 24.4883 18.0117 24.2695C17.5586 24.0508 17.1562 23.7266 16.8047 23.2969C16.4531 22.8594 16.1562 22.3203 15.9141 21.6797C15.6719 21.0312 15.4961 20.2852 15.3867 19.4414C15.1602 20.0352 14.8828 20.6094 14.5547 21.1641C14.2266 21.7109 13.8594 22.1953 13.4531 22.6172C13.0469 23.0391 12.6094 23.375 12.1406 23.625C11.6719 23.875 11.1836 24 10.6758 24C10.207 24 9.75391 23.9258 9.31641 23.7773C8.87891 23.6211 8.48828 23.3594 8.14453 22.9922C7.80859 22.625 7.53906 22.1367 7.33594 21.5273C7.13281 20.9102 7.03125 20.1406 7.03125 19.2188C7.03125 18.5078 7.09766 17.7891 7.23047 17.0625C7.36328 16.3281 7.53125 15.5977 7.73438 14.8711C7.9375 14.1445 8.15625 13.4258 8.39062 12.7148C8.625 12.0039 8.84375 11.3125 9.04688 10.6406C9.25 9.96875 9.41797 9.32422 9.55078 8.70703C9.68359 8.08984 9.75 7.50781 9.75 6.96094C9.75 6.25 9.60547 5.73437 9.31641 5.41406C9.03516 5.08594 8.64844 4.92188 8.15625 4.92188C7.60938 4.92188 7.08594 5.04688 6.58594 5.29688C6.09375 5.53906 5.63281 5.86719 5.20312 6.28125C4.78125 6.69531 4.39453 7.17578 4.04297 7.72266C3.69922 8.26172 3.40625 8.83203 3.16406 9.43359C2.92188 10.0352 2.73438 10.6445 2.60156 11.2617C2.46875 11.8789 2.40234 12.4688 2.40234 13.0312C2.40234 14.5859 2.86719 15.3633 3.79688 15.3633C4.09375 15.3633 4.39062 15.2734 4.6875 15.0938C4.98438 14.9062 5.26562 14.6484 5.53125 14.3203C5.79688 13.9922 6.03906 13.6016 6.25781 13.1484C6.47656 12.6875 6.66406 12.1836 6.82031 11.6367L7.32422 11.8828C7.24609 12.125 7.14453 12.3945 7.01953 12.6914C6.90234 12.9805 6.76172 13.2773 6.59766 13.582C6.43359 13.8867 6.24609 14.1836 6.03516 14.4727C5.82422 14.7539 5.58984 15.0078 5.33203 15.2344C5.07422 15.4531 4.78906 15.6289 4.47656 15.7617C4.17188 15.8945 3.83984 15.9609 3.48047 15.9609C2.72266 15.9609 2.11719 15.707 1.66406 15.1992C1.21094 14.6836 0.984375 13.9141 0.984375 12.8906C0.984375 12.2109 1.08984 11.5273 1.30078 10.8398C1.50391 10.1523 1.78516 9.49219 2.14453 8.85938C2.50391 8.22656 2.92578 7.63281 3.41016 7.07812C3.89453 6.52344 4.41406 6.04297 4.96875 5.63672C5.52344 5.23047 6.09766 4.91016 6.69141 4.67578C7.29297 4.44141 7.88672 4.32422 8.47266 4.32422C8.95703 4.32422 9.39453 4.38672 9.78516 4.51172C10.1758 4.63672 10.5039 4.83203 10.7695 5.09766C11.043 5.36328 11.25 5.69922 11.3906 6.10547C11.5391 6.51172 11.6133 6.99609 11.6133 7.55859C11.6133 8.11328 11.5508 8.71484 11.4258 9.36328C11.3086 10.0117 11.1562 10.6914 10.9688 11.4023C10.7891 12.1055 10.5898 12.832 10.3711 13.582C10.1602 14.3242 9.96094 15.0742 9.77344 15.832C9.59375 16.582 9.44141 17.3281 9.31641 18.0703C9.19922 18.8047 9.14062 19.5156 9.14062 20.2031C9.14062 20.7344 9.18359 21.1875 9.26953 21.5625C9.35547 21.9375 9.48047 22.2422 9.64453 22.4766C9.80859 22.7109 10.0117 22.8828 10.2539 22.9922C10.4961 23.1016 10.7734 23.1562 11.0859 23.1562ZM33.1523 21.0938C33.1523 21.5391 33.1914 21.9141 33.2695 22.2188C33.3477 22.5234 33.4844 22.6758 33.6797 22.6758C33.7969 22.6758 33.9219 22.6211 34.0547 22.5117C34.1953 22.3945 34.3555 22.207 34.5352 21.9492C34.7148 21.6914 34.918 21.3594 35.1445 20.9531C35.3789 20.5391 35.6445 20.0352 35.9414 19.4414L36.293 18.7148L36.7734 19.0781L36.4219 19.8047C36.0938 20.4609 35.7852 21.0508 35.4961 21.5742C35.2148 22.0898 34.9453 22.5273 34.6875 22.8867C34.4297 23.2461 34.1758 23.5234 33.9258 23.7188C33.6836 23.9062 33.4414 24 33.1992 24C32.9414 24 32.7227 23.9297 32.543 23.7891C32.3711 23.6484 32.2266 23.457 32.1094 23.2148C31.9922 22.9648 31.9023 22.6797 31.8398 22.3594C31.7773 22.0312 31.7344 21.6836 31.7109 21.3164C31.5234 21.6914 31.3164 22.043 31.0898 22.3711C30.8633 22.6914 30.625 22.9727 30.375 23.2148C30.1328 23.457 29.8789 23.6484 29.6133 23.7891C29.3477 23.9297 29.082 24 28.8164 24C28.4258 24 28.0469 23.918 27.6797 23.7539C27.3125 23.5898 26.9844 23.3398 26.6953 23.0039C26.4141 22.668 26.1875 22.2461 26.0156 21.7383C25.8438 21.2227 25.7578 20.6172 25.7578 19.9219C25.7578 19.1094 25.8633 18.3672 26.0742 17.6953C26.2852 17.0156 26.5703 16.4336 26.9297 15.9492C27.2891 15.457 27.7031 15.0781 28.1719 14.8125C28.6406 14.5391 29.1328 14.4023 29.6484 14.4023C29.9609 14.4023 30.25 14.4727 30.5156 14.6133C30.7812 14.7539 31.0117 14.9258 31.207 15.1289C31.4102 15.3242 31.5781 15.5352 31.7109 15.7617C31.8438 15.9805 31.9336 16.168 31.9805 16.3242L32.1211 15.1875C32.1367 15.0391 32.207 14.9141 32.332 14.8125C32.4648 14.7109 32.6094 14.6328 32.7656 14.5781C32.9219 14.5156 33.0742 14.4727 33.2227 14.4492C33.3711 14.418 33.4766 14.4023 33.5391 14.4023C33.6328 14.4023 33.6953 14.418 33.7266 14.4492C33.7578 14.4805 33.7734 14.543 33.7734 14.6367C33.7734 14.7539 33.7383 14.9922 33.668 15.3516C33.6055 15.7031 33.5352 16.1562 33.457 16.7109C33.3867 17.2578 33.3164 17.9023 33.2461 18.6445C33.1836 19.3867 33.1523 20.2031 33.1523 21.0938ZM31.8633 18C31.8633 17.6406 31.8086 17.2891 31.6992 16.9453C31.5898 16.5938 31.4414 16.2852 31.2539 16.0195C31.0664 15.7461 30.8477 15.5273 30.5977 15.3633C30.3555 15.1992 30.0977 15.1172 29.8242 15.1172C29.4883 15.1172 29.1719 15.2148 28.875 15.4102C28.5859 15.5977 28.332 15.8672 28.1133 16.2188C27.9023 16.5625 27.7344 16.9805 27.6094 17.4727C27.4844 17.957 27.4219 18.4922 27.4219 19.0781C27.4219 20.25 27.6055 21.1445 27.9727 21.7617C28.3398 22.3711 28.8281 22.6758 29.4375 22.6758C29.7031 22.6758 29.9766 22.5703 30.2578 22.3594C30.5469 22.1406 30.8086 21.832 31.043 21.4336C31.2852 21.0273 31.4805 20.5352 31.6289 19.957C31.7852 19.3789 31.8633 18.7266 31.8633 18ZM37.0312 14.7305C37.0625 14.6523 37.1367 14.5898 37.2539 14.543C37.3711 14.4961 37.4961 14.4648 37.6289 14.4492C37.7617 14.4258 37.8867 14.4141 38.0039 14.4141C38.1211 14.4062 38.1992 14.4023 38.2383 14.4023C38.3555 14.4023 38.4297 14.4336 38.4609 14.4961C38.5 14.5508 38.5195 14.6406 38.5195 14.7656C38.5195 14.8281 38.5 14.9688 38.4609 15.1875C38.4219 15.3984 38.3711 15.6641 38.3086 15.9844C38.2539 16.3047 38.1914 16.668 38.1211 17.0742C38.0586 17.4805 37.9961 17.8984 37.9336 18.3281C37.8789 18.7578 37.832 19.1953 37.793 19.6406C37.7539 20.0781 37.7344 20.4922 37.7344 20.8828C37.7344 21.5625 37.8477 22.0742 38.0742 22.418C38.3008 22.7539 38.5625 22.9219 38.8594 22.9219C39.375 22.9219 39.832 22.543 40.2305 21.7852C40.6289 21.0273 41.043 19.918 41.4727 18.457V15.0469C41.4727 14.9141 41.5312 14.8086 41.6484 14.7305C41.7734 14.6445 41.9141 14.5781 42.0703 14.5312C42.2266 14.4844 42.3789 14.4531 42.5273 14.4375C42.6758 14.4141 42.7812 14.4023 42.8438 14.4023C43.0859 14.4023 43.207 14.5234 43.207 14.7656C43.207 14.8516 43.1992 14.9961 43.1836 15.1992C43.1758 15.3945 43.1641 15.6289 43.1484 15.9023C43.1328 16.168 43.1172 16.4648 43.1016 16.793C43.0938 17.1133 43.0898 17.4375 43.0898 17.7656V22.5352C43.2305 22.3555 43.4062 22.1172 43.6172 21.8203C43.8359 21.5234 44.0586 21.207 44.2852 20.8711C44.5195 20.5352 44.7422 20.1992 44.9531 19.8633C45.1719 19.5273 45.3477 19.2266 45.4805 18.9609L45.6094 18.7148L46.0898 19.0781L45.9609 19.3242C45.7969 19.6523 45.6016 19.9922 45.375 20.3438C45.1484 20.6953 44.9062 21.0508 44.6484 21.4102C44.3984 21.7617 44.1367 22.1133 43.8633 22.4648C43.5977 22.8086 43.3398 23.1367 43.0898 23.4492V26.0391C43.0898 26.7578 43.0234 27.3672 42.8906 27.8672C42.7656 28.375 42.5898 28.7852 42.3633 29.0977C42.1367 29.418 41.8711 29.6484 41.5664 29.7891C41.2617 29.9297 40.9297 30 40.5703 30C40.3438 30 40.1328 29.9648 39.9375 29.8945C39.75 29.8242 39.5859 29.7188 39.4453 29.5781C39.3047 29.4453 39.1953 29.2812 39.1172 29.0859C39.0391 28.8984 39 28.6836 39 28.4414C39 28.0898 39.0625 27.7383 39.1875 27.3867C39.3203 27.0352 39.5 26.6719 39.7266 26.2969C39.9609 25.9219 40.2305 25.5352 40.5352 25.1367C40.8398 24.7461 41.168 24.3359 41.5195 23.9062V20.3555C41.3242 20.8867 41.1133 21.3789 40.8867 21.832C40.6602 22.2773 40.4141 22.6602 40.1484 22.9805C39.8828 23.3008 39.5977 23.5508 39.293 23.7305C38.9883 23.9102 38.6602 24 38.3086 24C38.0586 24 37.8008 23.9609 37.5352 23.8828C37.2773 23.7969 37.0352 23.6445 36.8086 23.4258C36.5898 23.207 36.4102 22.9141 36.2695 22.5469C36.1289 22.1719 36.0586 21.6953 36.0586 21.1172C36.0586 20.4609 36.0977 19.793 36.1758 19.1133C36.2539 18.4336 36.3438 17.8008 36.4453 17.2148C36.5547 16.6289 36.6641 16.1172 36.7734 15.6797C36.8828 15.2344 36.9688 14.918 37.0312 14.7305ZM40.4414 29.2852C40.5664 29.2852 40.6914 29.2578 40.8164 29.2031C40.9492 29.1562 41.0664 29.043 41.168 28.8633C41.2695 28.6836 41.3516 28.418 41.4141 28.0664C41.4844 27.7148 41.5195 27.2383 41.5195 26.6367V24.8672C41.2539 25.1953 41.0078 25.5117 40.7812 25.8164C40.5625 26.1289 40.3711 26.4297 40.207 26.7188C40.043 27.0156 39.9141 27.3008 39.8203 27.5742C39.7266 27.8477 39.6797 28.1133 39.6797 28.3711C39.6797 28.6133 39.7461 28.8242 39.8789 29.0039C40.0117 29.1914 40.1992 29.2852 40.4414 29.2852ZM52.4648 19.9219C52.4648 20.4531 52.3828 20.9648 52.2188 21.457C52.0625 21.9414 51.8281 22.375 51.5156 22.7578C51.2109 23.1328 50.8281 23.4336 50.3672 23.6602C49.9141 23.8867 49.3945 24 48.8086 24C48.3867 24 48.0078 23.9336 47.6719 23.8008C47.3438 23.6602 47.0625 23.4766 46.8281 23.25C46.5938 23.0156 46.4141 22.7539 46.2891 22.4648C46.1641 22.168 46.1016 21.8633 46.1016 21.5508C46.1016 21.2383 46.1602 20.9492 46.2773 20.6836C46.4023 20.4102 46.5664 20.1797 46.7695 19.9922C46.9805 19.7969 47.2188 19.6445 47.4844 19.5352C47.75 19.4258 48.0312 19.3711 48.3281 19.3711C48.5156 19.3711 48.7109 19.3945 48.9141 19.4414V19.7812C48.6641 19.7812 48.418 19.832 48.1758 19.9336C47.9414 20.0352 47.7305 20.1758 47.543 20.3555C47.3633 20.5273 47.2188 20.7383 47.1094 20.9883C47 21.2305 46.9453 21.4922 46.9453 21.7734C46.9453 22.2891 47.1211 22.7031 47.4727 23.0156C47.832 23.3203 48.3203 23.4727 48.9375 23.4727C49.25 23.4727 49.5352 23.4141 49.793 23.2969C50.0508 23.1719 50.2695 23.0039 50.4492 22.793C50.6367 22.5742 50.7773 22.3164 50.8711 22.0195C50.9727 21.7227 51.0234 21.3984 51.0234 21.0469C51.0234 20.7109 50.957 20.3984 50.8242 20.1094C50.6914 19.8203 50.5156 19.5469 50.2969 19.2891C50.0781 19.0312 49.8281 18.7891 49.5469 18.5625C49.2734 18.3359 48.9922 18.1211 48.7031 17.918C48.4219 17.707 48.1445 17.5039 47.8711 17.3086C47.5977 17.1133 47.3594 16.918 47.1562 16.7227L45.9844 19.3242L45.5039 18.9609L46.6992 16.3477C46.4102 16.0742 46.1953 15.8164 46.0547 15.5742C45.9219 15.3242 45.8555 15.0273 45.8555 14.6836C45.8555 14.4961 45.8867 14.3203 45.9492 14.1562C46.0195 13.9844 46.1094 13.8398 46.2188 13.7227C46.3359 13.5977 46.4688 13.5 46.6172 13.4297C46.7656 13.3594 46.9219 13.3242 47.0859 13.3242C47.3828 13.3242 47.6055 13.4102 47.7539 13.582C47.9023 13.7461 47.9766 13.9531 47.9766 14.2031C47.9766 14.3203 47.9648 14.4453 47.9414 14.5781C47.918 14.7031 47.8867 14.832 47.8477 14.9648C47.8164 15.0898 47.7812 15.207 47.7422 15.3164C47.7109 15.4258 47.6836 15.5195 47.6602 15.5977C47.8945 15.7773 48.1758 15.9531 48.5039 16.125C48.832 16.2891 49.1719 16.4609 49.5234 16.6406C49.8828 16.8203 50.2383 17.0156 50.5898 17.2266C50.9414 17.4375 51.2539 17.6719 51.5273 17.9297C51.8086 18.1875 52.0352 18.4805 52.207 18.8086C52.3789 19.1367 52.4648 19.5078 52.4648 19.9219ZM47.1094 13.8516C47 13.8516 46.9102 13.8906 46.8398 13.9688C46.7773 14.0391 46.7461 14.1367 46.7461 14.2617C46.7461 14.4023 46.7812 14.5586 46.8516 14.7305C46.9219 14.9023 47.0469 15.0703 47.2266 15.2344C47.3047 15.0703 47.3633 14.9102 47.4023 14.7539C47.4492 14.5977 47.4727 14.4414 47.4727 14.2852C47.4727 14.1602 47.4375 14.0586 47.3672 13.9805C47.3047 13.8945 47.2188 13.8516 47.1094 13.8516Z" fill="#384949"/>
<path d="M58.7578 8.54297V21.7969H64.5586V16.3242H66.75V24H53.8125V21.7969H56.0859V8.54297H53.8125V6.33984H61.0312V8.54297H58.7578ZM93.2109 15.7148V21.8438H95.2734V24H90.7852V15.8672C90.7852 15.0938 90.6719 14.5391 90.4453 14.2031C90.2266 13.8672 89.8633 13.6992 89.3555 13.6992C88.2773 13.6992 87.0664 14.2305 85.7227 15.293V21.8438H87.8438V24H81.1641V21.8438H83.332V13.8516H81.1641V11.6836H85.7227V13.1719C87.2305 12.0703 88.6484 11.5195 89.9766 11.5195C91.0781 11.5195 91.8906 11.8594 92.4141 12.5391C92.9453 13.2188 93.2109 14.2773 93.2109 15.7148ZM105.281 13.6992H103.336V11.6836H110.156V13.6992H108.258L103.652 17.5195L108 21.8438H110.156V24H106.957L100.793 17.7891V21.8438H102.879V24H96.1641V21.8438H98.3672V8.47266H96.1641V6.33984H100.793V17.4727L105.281 13.6992Z" fill="#FF9F00"/>
</svg>
